<svg width="123.99999999999999" height="24" xmlns="http://www.w3.org/2000/svg">

 <g>
  <title>Layer 1</title>
  <path id="svg_1" fill-rule="nonzero" fill="#417367" d="m5.75118,18.708c1.638,0 2.995,-0.36 4.07,-1.08c1.075,-0.721 1.613,-1.769 1.613,-3.144c-0.083,-1.855 -1.464,-3.246 -4.144,-4.173l-1.44,-0.597c-0.314,-0.1 -0.538,-0.198 -0.67,-0.298a0.45,0.45 0 0 1 -0.198,-0.373c0,-0.414 0.273,-0.62 0.819,-0.62c0.678,0 1.182,0.347 1.513,1.043l3.698,-1.044c-0.893,-2.22 -2.614,-3.329 -5.162,-3.329c-1.522,0 -2.788,0.398 -3.797,1.193c-1.009,0.794 -1.514,1.83 -1.514,3.104c0,0.398 0.058,0.766 0.174,1.106c0.116,0.34 0.29,0.638 0.521,0.894c0.232,0.257 0.455,0.48 0.67,0.671c0.215,0.19 0.488,0.369 0.82,0.534c0.33,0.166 0.582,0.286 0.756,0.36c0.174,0.075 0.41,0.162 0.707,0.261l0.422,0.15l1.49,0.546c0.363,0.133 0.6,0.244 0.707,0.335a0.449,0.449 0 0 1 0.16,0.36c0,0.431 -0.404,0.647 -1.215,0.647c-1.191,0 -1.903,-0.53 -2.134,-1.59l-3.723,0.845c0.463,2.8 2.416,4.2 5.857,4.2l0,-0.001zm11.636,0c1.638,0 2.845,-0.63 3.623,-1.888l0,1.615l5.112,0l0,-13.069l-5.112,0l0,7.156c0,1.474 -0.505,2.21 -1.514,2.21c-1.026,0 -1.539,-0.736 -1.539,-2.21l0,-7.156l-5.112,0l0,7.653c0,3.793 1.514,5.69 4.542,5.69l0,-0.001zm16.103,-0.273l0,-7.155c0,-1.475 0.504,-2.212 1.513,-2.212c1.026,0 1.54,0.737 1.54,2.212l0,7.155l5.111,0l0,-7.652c0,-3.793 -1.513,-5.69 -4.541,-5.69c-1.638,0 -2.846,0.63 -3.623,1.888l0,-1.615l-5.113,0l0,13.069l5.113,0zm15.383,0l0,-7.155c0,-1.475 0.504,-2.212 1.514,-2.212c1.025,0 1.538,0.737 1.538,2.212l0,7.155l5.113,0l0,-7.652c0,-3.793 -1.514,-5.69 -4.542,-5.69c-1.638,0 -2.846,0.63 -3.623,1.888l0,-1.615l-5.113,0l0,13.069l5.113,0zm15.979,5.565l8.289,-18.634l-5.337,0l-2.532,6.684l-2.258,-6.684l-5.584,0l5.435,11.802l-3.027,6.832l5.014,0zm13.67,-5.292c1.638,0 2.995,-0.36 4.07,-1.08c1.076,-0.721 1.614,-1.769 1.614,-3.144c-0.083,-1.855 -1.465,-3.246 -4.145,-4.173l-1.44,-0.597c-0.314,-0.1 -0.537,-0.198 -0.67,-0.298a0.45,0.45 0 0 1 -0.198,-0.373c0,-0.414 0.273,-0.62 0.819,-0.62c0.678,0 1.183,0.347 1.514,1.043l3.698,-1.044c-0.894,-2.22 -2.614,-3.329 -5.162,-3.329c-1.522,0 -2.788,0.398 -3.797,1.193c-1.01,0.795 -1.514,1.83 -1.514,3.105c0,0.398 0.058,0.766 0.173,1.106c0.116,0.34 0.29,0.638 0.522,0.894c0.231,0.257 0.455,0.48 0.67,0.671c0.215,0.19 0.488,0.369 0.819,0.534c0.33,0.166 0.583,0.286 0.757,0.36c0.173,0.075 0.41,0.162 0.707,0.261l0.422,0.15l1.489,0.546c0.364,0.133 0.6,0.244 0.707,0.335a0.449,0.449 0 0 1 0.161,0.36c0,0.431 -0.405,0.647 -1.216,0.647c-1.19,0 -1.902,-0.53 -2.134,-1.59l-3.723,0.844c0.464,2.8 2.416,4.2 5.857,4.2l0,-0.001zm9.8,-14.137c0.91,0 1.613,-0.215 2.11,-0.646c0.495,-0.43 0.744,-0.977 0.744,-1.64c0,-0.678 -0.24,-1.23 -0.72,-1.651c-0.48,-0.424 -1.191,-0.634 -2.134,-0.634c-0.943,0 -1.655,0.211 -2.135,0.634c-0.48,0.422 -0.72,0.973 -0.72,1.652c0,0.662 0.249,1.209 0.745,1.64c0.497,0.43 1.2,0.645 2.11,0.645zm2.556,13.864l0,-13.069l-5.114,0l0,13.069l5.113,0l0.001,0zm7.74,0.273c1.737,0 2.977,-0.63 3.722,-1.888l0,1.615l5.112,0l0,-17.963l-5.112,0l0,6.534c-0.745,-1.275 -1.985,-1.913 -3.723,-1.913c-1.753,0 -3.214,0.642 -4.38,1.926c-1.166,1.283 -1.75,2.91 -1.75,4.882c0,1.97 0.584,3.598 1.75,4.882c1.166,1.283 2.627,1.925 4.38,1.925l0.001,0zm1.39,-3.9c-0.729,0 -1.312,-0.274 -1.75,-0.82c-0.439,-0.547 -0.658,-1.243 -0.658,-2.087c0,-0.845 0.215,-1.54 0.645,-2.087c0.447,-0.547 1.034,-0.82 1.762,-0.82s1.311,0.273 1.75,0.82c0.438,0.546 0.657,1.242 0.657,2.087c0,0.844 -0.219,1.54 -0.657,2.087c-0.439,0.546 -1.022,0.82 -1.75,0.82l0.001,0zm16.698,3.9c2.597,0 4.624,-0.754 6.08,-2.26l-2.11,-2.833c-1.042,0.845 -2.217,1.267 -3.524,1.267c-0.992,0 -1.799,-0.224 -2.42,-0.67c-0.62,-0.448 -0.93,-0.879 -0.93,-1.293l9.604,0c0.083,-0.298 0.124,-0.687 0.124,-1.167c0,-2.054 -0.674,-3.677 -2.022,-4.87c-1.349,-1.193 -3.073,-1.789 -5.175,-1.789c-2.25,0 -4.028,0.671 -5.335,2.013c-1.307,1.341 -1.961,2.956 -1.961,4.844c0,1.938 0.69,3.549 2.072,4.833c1.382,1.283 3.247,1.925 5.597,1.925zm2.208,-8.149l-5.112,0c0.033,-0.613 0.298,-1.08 0.794,-1.404c0.496,-0.323 1.084,-0.484 1.762,-0.484c0.678,0 1.266,0.165 1.762,0.497c0.497,0.331 0.761,0.795 0.794,1.391z"/>
 </g>
</svg>